<?xml version="1.0" encoding="UTF-8" standalone="no"?>
<!-- Created with Inkscape (http://www.inkscape.org/) -->

<svg
   xmlns:dc="http://purl.org/dc/elements/1.1/"
   xmlns:cc="http://creativecommons.org/ns#"
   xmlns:rdf="http://www.w3.org/1999/02/22-rdf-syntax-ns#"
   xmlns:svg="http://www.w3.org/2000/svg"
   xmlns="http://www.w3.org/2000/svg"
   xmlns:sodipodi="http://sodipodi.sourceforge.net/DTD/sodipodi-0.dtd"
   xmlns:inkscape="http://www.inkscape.org/namespaces/inkscape"
   width="570"
   height="651"
   viewBox="0 0 150.8125 172.24375"
   version="1.1"
   id="svg8"
   inkscape:version="0.92.1 r15371"
   sodipodi:docname="logorsiblack.svg">
  <defs
     id="defs2" />
  <sodipodi:namedview
     id="base"
     pagecolor="#ffffff"
     bordercolor="#666666"
     borderopacity="1.0"
     inkscape:pageopacity="0.0"
     inkscape:pageshadow="2"
     inkscape:zoom="0.35"
     inkscape:cx="-127.14286"
     inkscape:cy="560"
     inkscape:document-units="mm"
     inkscape:current-layer="layer1"
     showgrid="false"
     inkscape:window-width="1366"
     inkscape:window-height="705"
     inkscape:window-x="-8"
     inkscape:window-y="-8"
     inkscape:window-maximized="1"
     units="px" />
  <metadata
     id="metadata5">
    <rdf:RDF>
      <cc:Work
         rdf:about="">
        <dc:format>image/svg+xml</dc:format>
        <dc:type
           rdf:resource="http://purl.org/dc/dcmitype/StillImage" />
        <dc:title></dc:title>
      </cc:Work>
    </rdf:RDF>
  </metadata>
  <g
     inkscape:label="Camada 1"
     inkscape:groupmode="layer"
     id="layer1"
     transform="translate(0,-124.75623)">
    <path
       inkscape:connector-curvature="0"
       style="fill:#000000;stroke:none;stroke-width:0.19885129px;stroke-linecap:butt;stroke-linejoin:miter;stroke-opacity:1"
       d="m 75.447733,124.79539 c -11.239679,0.30834 -42.589635,13.05866 -42.589635,13.05866 L 2.6023184,148.53399 c -4.932032,1.74087 -2.37395298,26.07674 3.656861,52.0182 C 12.328716,226.66023 28.802672,252.8727 35.425322,261.03577 64.590474,296.98471 75.447733,297 75.447733,297 c 0,0 10.85606,-0.0141 40.021197,-35.96423 0.95628,-1.17871 2.13551,-2.7725 3.44162,-4.64922 L 94.040953,231.51696 a 39.894013,39.894013 0 0 1 -18.59322,4.62611 39.894013,39.894013 0 0 1 -39.894717,-39.89471 39.894013,39.894013 0 0 1 39.894717,-39.89351 39.894013,39.894013 0 0 1 39.893507,39.89351 39.894013,39.894013 0 0 1 -7.60316,23.36039 l 20.90505,20.90504 c 6.23401,-11.37511 12.67145,-25.67328 15.99316,-39.9616 6.03082,-25.94146 8.58772,-50.27732 3.65565,-52.01819 l -30.25578,-10.67995 c 0,0 -31.348757,-12.75032 -42.588427,-13.05866 z"
       id="path3732-5-4" />
    <path
       style="fill:#000000;stroke:none;stroke-width:0.66200423"
       d="m 81.078333,174.74497 a 15.617115,15.617115 0 0 0 -15.617381,15.61738 15.617115,15.617115 0 0 0 1.49826,6.63027 l -12.252378,11.9447 c -2.229037,8.80183 3.600923,9.20114 3.600923,9.20114 h 9.086826 v -6.57191 h 6.68743 v -5.94437 l 3.51458,-0.0572 a 15.617115,15.617115 0 0 0 3.48174,0.41348 15.617115,15.617115 0 0 0 15.61738,-15.61615 15.617115,15.617115 0 0 0 -15.61738,-15.61739 z m 0,9.55139 a 6.0653376,6.0653376 0 0 1 6.06599,6.06599 6.0653376,6.0653376 0 0 1 -6.06599,6.06477 6.0653376,6.0653376 0 0 1 -6.06477,-6.06477 6.0653376,6.0653376 0 0 1 6.06477,-6.06599 z"
       id="path3866"
       inkscape:connector-curvature="0" />
    <flowRoot
       xml:space="preserve"
       id="flowRoot3922"
       style="font-style:normal;font-variant:normal;font-weight:normal;font-stretch:normal;font-size:40px;line-height:1.25;font-family:'Open Sans';-inkscape-font-specification:'Open Sans';letter-spacing:0px;word-spacing:0px;fill:#000000;fill-opacity:1;stroke:none"
       transform="translate(3.1011907,-37.153787)"><flowRegion
         id="flowRegion3924"><rect
           id="rect3926"
           width="602.85712"
           height="145.71428"
           x="80"
           y="36.805401" /></flowRegion><flowPara
         id="flowPara3928" /></flowRoot>  </g>
</svg>
